<svg xmlns="http://www.w3.org/2000/svg" width="31.128" height="30" viewBox="0 0 31.128 30">
  <g id="account-42" transform="translate(-72.703 -70.352)">
    <path id="Path_6769" data-name="Path 6769" d="M366.283,210.174a8.838,8.838,0,1,0-8.838,8.971,8.907,8.907,0,0,0,8.838-8.971m-14.582,0a5.745,5.745,0,1,1,5.744,5.832,5.789,5.789,0,0,1-5.744-5.832" transform="translate(-269.397 -130.847)" fill="#0081ff"/>
    <path id="Path_6770" data-name="Path 6770" d="M263.323,478.364a15.627,15.627,0,0,0-13.516-12.245c-.506-.055-1.024.022-1.544.017l.144,3.034a12.48,12.48,0,0,1,11.709,9.194h-24a12.582,12.582,0,0,1,4.212-6.437,1.864,1.864,0,0,0-.1-1.921,2.15,2.15,0,0,0-2.005-.4,15.73,15.73,0,0,0-5.668,11.9h31.128A15.877,15.877,0,0,0,263.323,478.364Z" transform="translate(-159.848 -381.152)" fill="#0081ff"/>
  </g>
</svg>
