<svg xmlns="http://www.w3.org/2000/svg" width="22.368" height="30" viewBox="0 0 22.368 30">
  <g id="Airtime" transform="translate(1.496 0.993)">
    <path id="Subtraction_49" data-name="Subtraction 49" d="M12.738,23.123H1.581A1.584,1.584,0,0,1,0,21.541V2.1A1.584,1.584,0,0,1,1.581.517H9.64A.523.523,0,0,1,10.157,0h2.118A.526.526,0,0,1,12.8.526,1.576,1.576,0,0,1,14.32,2.1V21.541A1.584,1.584,0,0,1,12.738,23.123Zm-5.43-2.847a1.056,1.056,0,1,0,1.056,1.056A1.057,1.057,0,0,0,7.308,20.276Z" transform="translate(6.552 5.884)" fill="#0081ff"/>
    <path id="Path_6480" data-name="Path 6480" d="M9.523,3.622a.9.9,0,0,1-.646-.271,5.171,5.171,0,0,0-7.312,0,.917.917,0,1,1-1.3-1.3,6.994,6.994,0,0,1,9.9,0,.921.921,0,0,1-.651,1.567Z" transform="translate(-1.496 5.576) rotate(-39)" fill="#f9cc12"/>
    <path id="Path_6481" data-name="Path 6481" d="M6.182,2.929a.912.912,0,0,1-.646-.271,2.806,2.806,0,0,0-3.97,0,.918.918,0,0,1-1.3-1.3,4.644,4.644,0,0,1,6.562,0,.921.921,0,0,1-.651,1.572Z" transform="translate(1.881 7.447) rotate(-39)" fill="#f9cc12"/>
    <g id="Rectangle_1744" data-name="Rectangle 1744" transform="translate(10.838 7.828)" fill="#fff" stroke="#fff" stroke-width="1">
      <rect width="5" height="1" rx="0.5" stroke="none"/>
      <rect x="0.5" y="0.5" width="4" fill="none"/>
    </g>
    <rect id="Rectangle_17322" data-name="Rectangle 17322" width="11.332" height="16.698" rx="2" transform="translate(8.046 8.73)" fill="#f9cc12"/>
  </g>
</svg>
