<svg xmlns="http://www.w3.org/2000/svg" width="25.551" height="31.144" viewBox="0 0 25.551 31.144">
  <g id="biller" transform="translate(-279.273 -139.636)">
    <path id="Path_6740" data-name="Path 6740" d="M295.8,170.781a1.154,1.154,0,0,1-.89-.381l-2.924-2.924-2.924,2.924a1.373,1.373,0,0,1-.89.381.96.96,0,0,1-.89-.508l-2.415-2.8-3.432,2.8a1.364,1.364,0,0,1-1.4.127,1.112,1.112,0,0,1-.763-1.144V143.323a3.689,3.689,0,0,1,3.687-3.686h18.178a3.689,3.689,0,0,1,3.686,3.686v26.06a1.222,1.222,0,0,1-.763,1.144,1.392,1.392,0,0,1-1.4-.127l-3.432-2.8-2.415,2.8a1.444,1.444,0,0,1-1.017.381Zm-3.814-6.356a1.154,1.154,0,0,1,.89.381l2.8,2.8,2.288-2.8a1.236,1.236,0,0,1,1.78-.127l2.415,1.907V143.323a1.139,1.139,0,0,0-1.144-1.144H282.96a1.139,1.139,0,0,0-1.144,1.144v23.39l2.415-1.907a1.361,1.361,0,0,1,1.78.127l2.288,2.8,2.8-2.8a.96.96,0,0,1,.89-.508Z" transform="translate(0 0)" fill="#0081ff"/>
    <path id="Path_6741" data-name="Path 6741" d="M430.985,296.059H419.544a.636.636,0,0,1,0-1.271h11.441a.636.636,0,0,1,0,1.271Zm-1.907,3.178h-9.534a.636.636,0,0,1,0-1.271h9.534a.636.636,0,0,1,0,1.271Z" transform="translate(-133.915 -148.796)" fill="#0081ff"/>
    <path id="Path_6742" data-name="Path 6742" d="M418.909,470.413h.89a1.094,1.094,0,0,1,1.017,1.017v1.907a.337.337,0,0,0,.381.381h1.271v.636H421.2a1.094,1.094,0,0,1-1.017-1.017V471.43a.337.337,0,0,0-.381-.381h-.89Zm1.017-2.161a.982.982,0,0,1-1.017-.89v-1.017a.982.982,0,0,1,1.017-.89H425.9a.982.982,0,0,1,1.017.89v1.017a.907.907,0,0,1-1.017.89Zm1.525-.636V466.09h-1.4c-.254,0-.381.127-.381.254v1.017c0,.127.127.254.381.254Zm-.763,1.271v1.271h-.636v-1.271Zm1.4-1.271h1.78V466.09h-1.78v1.525Zm2.161,1.4v3.814h-.636v-3.814Zm-.508,4.576h1.78a.547.547,0,0,0,.508-.508V468.76h.636v4.322a1.139,1.139,0,0,1-1.144,1.144h-1.78Zm.763-7.5v1.525h1.4c.254,0,.381-.127.381-.254v-1.017c0-.127-.127-.254-.381-.254Z" transform="translate(-133.916 -312.471)" fill="#ffaf00"/>
  </g>
</svg>
