<svg id="complaints" xmlns="http://www.w3.org/2000/svg" width="30.003" height="30" viewBox="0 0 30.003 30">
  <path id="Path_6689" data-name="Path 6689" d="M21.855,38.757l-1.649,6.154,6.148-1.649a12.32,12.32,0,1,0-4.5-4.505Z" transform="translate(-19.513 -19.603)" fill="#33abe3"/>
  <path id="Path_6690" data-name="Path 6690" d="M.579,26a.578.578,0,0,1-.559-.731l1.6-5.983A12.983,12.983,0,1,1,6.707,24.38l-5.977,1.6A.69.69,0,0,1,.579,26Zm6.209-2.822a.576.576,0,0,1,.289.077,11.844,11.844,0,1,0-4.335-4.338.578.578,0,0,1,.057.441L1.4,24.6l5.237-1.4a.711.711,0,0,1,.155-.017Z" transform="translate(0)" fill="#403f3f"/>
  <path id="Path_6691" data-name="Path 6691" d="M199.261,240.787H189.7a.693.693,0,1,1,0-1.387h9.559a.693.693,0,0,1,0,1.387Zm7.221,4.441H189.7a.693.693,0,0,1,0-1.387h16.783a.693.693,0,0,1,0,1.387Zm0,4.445H189.7a.693.693,0,0,1,0-1.387h16.783a.693.693,0,1,1,0,1.387Zm0,4.441H189.7a.693.693,0,1,1,0-1.387h16.783a.693.693,0,1,1,0,1.387Z" transform="translate(-184.485 -233.253)" fill="#fff"/>
  <path id="Path_6692" data-name="Path 6692" d="M496.779,493.482l1.2,4.5-4.493-1.2a9,9,0,1,1,3.288-3.291Z" transform="translate(-468.677 -468.671)" fill="#fff"/>
  <path id="Path_6693" data-name="Path 6693" d="M478.384,478.971a.639.639,0,0,1-.178-.024l-4.222-1.133a9.687,9.687,0,1,1,3.94-3.94l1.133,4.222a.689.689,0,0,1-.178.669A.705.705,0,0,1,478.384,478.971Zm-8.992-17.981a8.3,8.3,0,1,0,4.15,15.479.692.692,0,0,1,.529-.069l3.333.892-.892-3.336a.694.694,0,0,1,.069-.529,8.291,8.291,0,0,0-7.187-12.438Z" transform="translate(-449.078 -448.971)" fill="#403f3f"/>
  <path id="Path_6694" data-name="Path 6694" d="M588.606,662.7h6.428" transform="translate(-572.024 -643.285)" fill="#33abe3"/>
  <path id="Path_6695" data-name="Path 6695" d="M575.528,643.887H569.1a.693.693,0,1,1,0-1.387h6.425a.693.693,0,0,1,0,1.387Z" transform="translate(-552.57 -623.809)" fill="#403f3f"/>
  <path id="Path_6696" data-name="Path 6696" d="M588.606,792.1h11.127" transform="translate(-573.55 -768.894)" fill="#33abe3"/>
  <path id="Path_6697" data-name="Path 6697" d="M580.226,773.287H569.1a.693.693,0,1,1,0-1.387h11.127a.693.693,0,0,1,0,1.387Z" transform="translate(-554.043 -749.445)" fill="#403f3f"/>
</svg>
