<svg xmlns="http://www.w3.org/2000/svg" width="45.689" height="30" viewBox="0 0 45.689 30">
  <g id="debit_instructions" transform="translate(-28.89 -336.733)">
    <g id="cards" transform="translate(28.89 336.733)">
      <path id="Path_6747" data-name="Path 6747" d="M371.013,357.309V341.775a2.7,2.7,0,0,0-2.7-2.7H344.5V336.9a1.8,1.8,0,0,1,1.8-1.8H375.19a1.8,1.8,0,0,1,1.8,1.8v18.609a1.8,1.8,0,0,1-1.8,1.8Z" transform="translate(-331.966 -334.428)" fill="#f7f8f8"/>
      <path id="Path_6748" data-name="Path 6748" d="M250.924,417.8a2.906,2.906,0,0,1-.363.141A1.694,1.694,0,0,0,250.924,417.8Zm-4.7.269a2.686,2.686,0,0,0,2.686-2.686V397a2.7,2.7,0,0,0-2.7-2.7H220.086a2.685,2.685,0,0,0-2.686,2.686v18.4a2.686,2.686,0,0,0,2.686,2.686h29.67a2.648,2.648,0,0,0,.8-.121,2.648,2.648,0,0,1-.8.121Z" transform="translate(-214.794 -388.738)" fill="#f9cc12"/>
      <path id="Path_6749" data-name="Path 6749" d="M706.163,335.1h-3.532a1.83,1.83,0,0,1,1.8,1.859v19.225a1.83,1.83,0,0,1-1.8,1.859h3.532a1.83,1.83,0,0,0,1.8-1.859V336.959A1.83,1.83,0,0,0,706.163,335.1ZM700.1,363.643Zm-.8-24.435a2.731,2.731,0,0,1,2.686,2.775v19.01a2.793,2.793,0,0,1-1.524,2.5,2.793,2.793,0,0,0,1.524-2.5v-19.01A2.735,2.735,0,0,0,699.3,339.207Z" transform="translate(-662.939 -334.428)" fill="#2ea7e0"/>
      <path id="Path_6750" data-name="Path 6750" d="M652.639,415.387v-18.4a2.685,2.685,0,0,0-2.686-2.686H646.4a2.7,2.7,0,0,1,2.7,2.7v18.387a2.686,2.686,0,0,1-2.686,2.686h3.532a2.649,2.649,0,0,0,.8-.121h.007q.181-.06.363-.141A2.7,2.7,0,0,0,652.639,415.387Z" transform="translate(-613.591 -388.738)" fill="#2ea7e0"/>
      <path id="Path_6751" data-name="Path 6751" d="M470.172,624.543H479.4a.672.672,0,1,0,0-1.343h-9.227a.672.672,0,1,0,0,1.343Zm0,3.083h12.31a.672.672,0,1,0,0-1.343h-12.31a.672.672,0,0,0,0,1.343Z" transform="translate(-449.076 -602.438)" fill="#036eb8"/>
      <path id="Path_6752" data-name="Path 6752" d="M221.747,325.1h-4.308a.693.693,0,0,0,0,1.385h4.308a1.162,1.162,0,0,1,1.164,1.164v19.194a1.162,1.162,0,0,1-1.164,1.164h-3.616V332.664a3.465,3.465,0,0,0-3.463-3.463h-26v-1.552a1.162,1.162,0,0,1,1.164-1.164h24.057a.693.693,0,0,0,0-1.385H189.828a2.551,2.551,0,0,0-2.549,2.549V329.2h-5.216a3.465,3.465,0,0,0-3.463,3.463V343.22a.693.693,0,0,0,1.385,0V340.1h1.578a.693.693,0,0,0,0-1.385h-1.578v-6.054a2.084,2.084,0,0,1,2.078-2.078h32.591a2.094,2.094,0,0,1,2.092,2.092v6.04H200.918a.693.693,0,0,0,0,1.385h15.828v11.54a2.084,2.084,0,0,1-2.078,2.078h-32.6a2.084,2.084,0,0,1-2.078-2.078V345.6a.693.693,0,1,0-1.385,0v6.033a3.465,3.465,0,0,0,3.463,3.463h32.6a3.465,3.465,0,0,0,3.463-3.463v-2.251h3.616a2.551,2.551,0,0,0,2.549-2.549V327.649A2.541,2.541,0,0,0,221.747,325.1Z" transform="translate(-178.6 -325.1)" fill="#036eb8"/>
    </g>
    <g id="info" transform="translate(30.265 343.108)">
      <g id="Layer_x0020_1" transform="translate(8.932 2.328)">
        <path id="Path_6762" data-name="Path 6762" d="M4.827,2.205h0A2.05,2.05,0,0,1,6.873,4.251v8.525a2.05,2.05,0,0,1-2.046,2.046h0a2.05,2.05,0,0,1-2.046-2.046V4.251A2.05,2.05,0,0,1,4.827,2.205Zm0,1.38h0a.67.67,0,0,0-.666.666v8.525a.67.67,0,0,0,.666.666h0a.67.67,0,0,0,.666-.666V4.251a.67.67,0,0,0-.666-.666Z" transform="translate(-2.72 2.597)" fill="#1b3890"/>
        <path id="Path_6763" data-name="Path 6763" d="M4.868.72a2.107,2.107,0,1,1-1.489.617A2.1,2.1,0,0,1,4.868.72Zm.514,1.593a.727.727,0,1,0,.213.514A.725.725,0,0,0,5.382,2.313Z" transform="translate(-2.762 -0.72)" fill="#1b3890"/>
        <path id="Path_6764" data-name="Path 6764" d="M4.344,2.828a.666.666,0,0,0-1.136.47v8.525a.666.666,0,0,0,1.333,0V3.3a.664.664,0,0,0-.2-.47Z" transform="translate(-1.767 3.551)" fill="#c2e4f8" fill-rule="evenodd"/>
        <path id="Path_6765" data-name="Path 6765" d="M3.915,2.6A.727.727,0,1,0,3.4,2.387.725.725,0,0,0,3.915,2.6Z" transform="translate(-1.809 0.233)" fill="#c2e4f8" fill-rule="evenodd"/>
      </g>
      <rect id="Rectangle_1745" data-name="Rectangle 1745" width="22.077" height="22.077" fill="none"/>
    </g>
  </g>
</svg>
