<svg xmlns="http://www.w3.org/2000/svg" width="21.352" height="30" viewBox="0 0 21.352 30">
  <g id="Electricity" transform="translate(-98.086 -47.91)">
    <path id="Path_6629" data-name="Path 6629" d="M155.445,47.91a10.625,10.625,0,0,0-8.567,16.971c.079.106.848,1.082.911,1.168a14.892,14.892,0,0,1,2.442,4.483h-.137a.439.439,0,0,0-.441.438v2.771a.44.44,0,0,0,.441.439h10.921a.439.439,0,0,0,.44-.439V70.97a.439.439,0,0,0-.44-.438h-.355a14.8,14.8,0,0,1,2.4-4.419c.095-.131.823-1.06.863-1.112a10.5,10.5,0,0,0,2.2-6.464A10.665,10.665,0,0,0,155.445,47.91Zm7.242,16.153c-.039.051-.786,1.005-.89,1.149-2.244,3.093-2.659,4.9-2.73,5.327h-7.242c-.071-.43-.493-2.254-2.778-5.391-.074-.1-.855-1.095-.923-1.184a9.053,9.053,0,0,1,1.222-12.177,9.155,9.155,0,0,1,12.292.086,9.053,9.053,0,0,1,1.049,12.193Z" transform="translate(-46.682 0)" fill="#0081ff"/>
    <path id="Path_6630" data-name="Path 6630" d="M116.707,292.5a1.136,1.136,0,0,0,1.139,1.136h1.362c2.144-.018.153,0,1.515,0h1.362a1.136,1.136,0,0,0,1.136-1.136v-1.315H116.71Z" transform="translate(-11.091 -215.723)" fill="#0081ff"/>
    <path id="Path_6631" data-name="Path 6631" d="M233.114,125.49H231.4a.574.574,0,0,1-.535-.778l1.442-3.793a.574.574,0,0,0-.535-.778h-3.73a.573.573,0,0,0-.562.455l-1.609,7.584a.574.574,0,0,0,.562.694h2.433a.575.575,0,0,1,.564.683l-.6,3.129a.516.516,0,0,0,.952.357l3.834-6.687a.573.573,0,0,0-.5-.864Z" transform="translate(-120.901 -66.148)" fill="#f9cc12"/>
  </g>
</svg>
