<svg id="fbn-account" xmlns="http://www.w3.org/2000/svg" width="18.089" height="30" viewBox="0 0 18.089 30">
  <path id="Path_1211" data-name="Path 1211" d="M37.027,4.548A4.214,4.214,0,1,1,32.779.3,4.219,4.219,0,0,1,37.027,4.548Zm-4.32-.674c-.377,0-.27-3.2-.27-2.889,0,.343.137.514.48.514a.433.433,0,0,0,.48-.48C34.869,3.128,33.05,3.874,32.707,3.874Z" transform="translate(-18.939 -0.3)" fill="#053065"/>
  <path id="Path_1211-2" data-name="Path 1211" d="M37.027,4.548A4.214,4.214,0,1,1,32.779.3,4.219,4.219,0,0,1,37.027,4.548ZM32.779,6.064c-.377,0-.343-5.388-.343-5.079,0,.343.137.514.48.514.308,0,1.866.018,1.027.768a4.1,4.1,0,0,0,0-.537C33.828,2,33.1,6.064,32.779,6.064Z" transform="translate(-28.6 -0.3)" fill="#053065"/>
  <path id="Path_1211-3" data-name="Path 1211" d="M37.027,4.548A4.214,4.214,0,1,1,32.779.3,4.219,4.219,0,0,1,37.027,4.548Zm-3-.937c-.377,0-3.176-.032-2.506-1.294,0,.343,1.048-.817,1.391-.817a.433.433,0,0,0,.48-.48C33.362.677,34.375,3.611,34.032,3.611Z" transform="translate(-28.6 10.469)" fill="#053065"/>
  <path id="Path_1211-4" data-name="Path 1211" d="M37.027,4.548A4.214,4.214,0,1,1,32.779.3,4.219,4.219,0,0,1,37.027,4.548Zm-5.438-2.3c-.377,0-.254-1.057-.254-.748,0,.343,1.239,0,1.581,0,.308,0,1,.552,1,.243.8,1.6-1.244,1.714-1.475,1.653A11.718,11.718,0,0,0,31.589,2.247Z" transform="translate(-28.6 21.238)" fill="#053065"/>
  <path id="Path_1211-5" data-name="Path 1211" d="M37.027,4.548A4.214,4.214,0,1,1,32.779.3,4.219,4.219,0,0,1,37.027,4.548ZM32.916,1.77c-.377,0-2.046.429-.961-.3,0,.343.619.03.961.03.308,0,.6.383.6.075C33.667,2.383,33.259,1.77,32.916,1.77Z" transform="translate(-18.939 10.469)" fill="#eea827"/>
</svg>
