<svg xmlns="http://www.w3.org/2000/svg" width="29.742" height="30" viewBox="0 0 29.742 30">
  <path id="FirstBank" d="M4.638,30l-.525-1.054,1.928-4.632-.015-3.556L9.86,23.452,8.747,28.936,9.262,30ZM10.4,26.54l2.705-1.7L6.119,19.886,1.071,21.64,0,21.48,2.412,9.995c1.553,2.357,4.372,5.235,10.941,5.22l.168,2.014-.492,1.8,2.541,4.133.094,2.563-1.207,2.972L14.4,29.868Zm7.989-3.719c-.2-2,.787-6.052.708-6.817l-.19-1.247a10.678,10.678,0,0,0,3.658,1.325,3.89,3.89,0,0,1-.2,1.127c-.47,1.189-2.31,4.755-2.227,5.57.065.608.548.817,1.141.661a2.571,2.571,0,0,1,.119,1.12,1.375,1.375,0,0,1-.837.3h-.011A2.191,2.191,0,0,1,18.391,22.821ZM15.97,11.828a2.173,2.173,0,0,1,2.679-.876c5.139,3.912,9,3.409,9.446,3.383.775-.031,1.569-.146,1.641.124s-.443.894-2.766,1.185a12.181,12.181,0,0,1-1.476.09A14.694,14.694,0,0,1,15.97,11.828ZM1.751,5.07A17.727,17.727,0,0,1,2.622.386C2.833-.148,3.8.028,3.8.028l6.263.915L11.377.22a13.041,13.041,0,0,1,4.03.449,28.3,28.3,0,0,1,4.481,4.686l-.1,1.024a29.744,29.744,0,0,1,2.042,2.737,9.308,9.308,0,0,1,.71,3.6,27.238,27.238,0,0,1-4.023-2.718,3.32,3.32,0,0,0-3.855,1.725l.648.576a2.977,2.977,0,0,1-1.041,1.692C1.471,13.986,1.751,5.99,1.751,5.07ZM12,6.739l3.593-.5L14.153,4.857Zm10.54,5.973Z" fill="#03476e"/>
</svg>
