<svg xmlns="http://www.w3.org/2000/svg" width="30" height="30" viewBox="0 0 30 30">
  <g id="frquently" transform="translate(-1 -1)">
    <path id="Path_6776" data-name="Path 6776" d="M16,1A15,15,0,1,0,31,16,15.007,15.007,0,0,0,16,1Zm0,2A13,13,0,1,1,3,16,13.006,13.006,0,0,1,16,3Z" fill="#0081ff" fill-rule="evenodd"/>
    <path id="Path_6777" data-name="Path 6777" d="M15,6V16a1,1,0,0,0,.293.707l6,6a1,1,0,0,0,1.414-1.414L17,15.586V6a1,1,0,0,0-2,0Z" fill="#f9cc12" fill-rule="evenodd"/>
  </g>
</svg>
