<svg xmlns="http://www.w3.org/2000/svg" width="24.52" height="30" viewBox="0 0 24.52 30">
  <g id="locator" transform="translate(-165.6 -101.9)">
    <path id="Path_6698" data-name="Path 6698" d="M202.491,145.671c-2.45,2.836-4.857,4.811-5.487,4.811-1.61,0-11.5-9.038-11.5-16.975a11.5,11.5,0,1,1,23.006,0c0,2.961-1.662,6.311-3.734,9.251Z" transform="translate(-19.147 -19.339)" fill="#f9cc12"/>
    <path id="Path_6699" data-name="Path 6699" d="M177.857,131.9a2.713,2.713,0,0,1-1.345-.515,14.166,14.166,0,0,1-1.61-1.2,32.34,32.34,0,0,1-3.98-4.076,28.454,28.454,0,0,1-3.675-5.619,14.69,14.69,0,0,1-1.646-6.332,12.26,12.26,0,1,1,24.52,0c0,3.462-2.106,7.181-3.874,9.688l-.022.029-2.3,2.933-.011.015a34.6,34.6,0,0,1-3.51,3.55C178.632,131.9,178.088,131.9,177.857,131.9ZM177.79,130.437ZM177.882,130.434Zm-.026-27.06a10.791,10.791,0,0,0-10.79,10.79c0,4.241,3.043,8.618,4.855,10.853a31.526,31.526,0,0,0,3.752,3.9,8.045,8.045,0,0,0,2.165,1.5c.492-.187,2.444-1.643,4.947-4.539l2.264-2.892c1.643-2.334,3.594-5.755,3.594-8.828a10.791,10.791,0,0,0-10.786-10.79Z" transform="translate(0 0)" fill="#444d68"/>
    <path id="Path_6700" data-name="Path 6700" d="M373.636,293.536m-4.936,0a4.936,4.936,0,1,0,4.936-4.936A4.936,4.936,0,0,0,368.7,293.536Z" transform="translate(-195.779 -179.935)" fill="#186fed"/>
  </g>
</svg>
