<svg xmlns="http://www.w3.org/2000/svg" width="29.717" height="30" viewBox="0 0 29.717 30">
  <g id="Other_Bank" data-name="Other Bank" transform="translate(-22.8 -85.7)">
    <g id="XMLID_719_" transform="translate(22.8 85.7)">
      <path id="XMLID_733_" d="M36.559,125.328H22.8l2.078-5.128h8.688Z" transform="translate(-22.8 -116.942)" fill="#0081ff"/>
      <path id="XMLID_725_" d="M22.8,177.3v21.35H36.559V177.3Zm13.174,20.187H23.386V195.1H35.974Zm0-3.383H23.386v-2.391H35.974Zm0-3.383H23.386v-2.391H35.974Zm0-3.383H23.386v-2.391H35.974Zm0-3.383H23.386v-2.391H35.974Zm0-3.383H23.386v-2.391H35.974Z" transform="translate(-22.8 -168.65)" fill="#0081ff"/>
      <g id="XMLID_721_" transform="translate(2.54 8.667)">
        <rect id="XMLID_724_" width="1.398" height="21.333" fill="#0081ff"/>
        <rect id="XMLID_723_" width="1.398" height="19.699" transform="translate(3.674 0.869)" fill="#0081ff"/>
        <rect id="XMLID_722_" width="1.398" height="19.699" transform="translate(7.347 0.812)" fill="#0081ff"/>
      </g>
      <path id="XMLID_720_" d="M45.2,88.712,49.5,85.7l4.3,3.012Z" transform="translate(-43.085 -85.7)" fill="#0081ff"/>
    </g>
    <rect id="XMLID_718_" width="15.299" height="1.143" transform="translate(37.199 98.513)" fill="#0081ff"/>
    <path id="XMLID_717_" d="M190.408,147.3v6.809H175.1Z" transform="translate(-137.901 -55.779)" fill="#0081ff"/>
    <path id="XMLID_705_" d="M175.1,234.8v15.884h8.282v-7.158a1.935,1.935,0,0,1,1.926-1.926h.85a1.935,1.935,0,0,1,1.926,1.926v7.158h2.333V234.8Zm3.352,12.192H175.94V245.16h2.512Zm0-2.1H175.94v-1.974h2.512Zm2.729,2.1H178.67V245.16h2.512Zm0-2.1H178.67v-1.974h2.512Zm8.858-4.788H175.468v-2H190.04Zm0-2.54H175.468v-2H190.04Z" transform="translate(-137.901 -135.003)" fill="#0081ff"/>
    <rect id="XMLID_704_" width="0.397" height="5.506" transform="translate(39.534 99.998)" fill="#0081ff"/>
    <rect id="XMLID_703_" width="0.397" height="5.506" transform="translate(42.076 99.998)" fill="#0081ff"/>
    <rect id="XMLID_702_" width="0.397" height="5.506" transform="translate(44.608 99.998)" fill="#0081ff"/>
    <rect id="XMLID_701_" width="0.397" height="5.506" transform="translate(47.153 99.998)" fill="#0081ff"/>
    <rect id="XMLID_700_" width="0.397" height="5.506" transform="translate(49.693 99.998)" fill="#0081ff"/>
  </g>
</svg>
