<svg xmlns="http://www.w3.org/2000/svg" width="32.823" height="32.412" viewBox="0 0 32.823 32.412">
  <g id="QR" transform="translate(-1.588 -2)">
    <path id="Path_6720" data-name="Path 6720" d="M15,12v5.132" transform="translate(7.988 5.91)" fill="none" stroke="#0081ff" stroke-linecap="round" stroke-linejoin="round" stroke-width="2"/>
    <path id="Path_6721" data-name="Path 6721" d="M12,3V8.132" transform="translate(5.991)" fill="none" stroke="#0081ff" stroke-linecap="round" stroke-linejoin="round" stroke-width="2"/>
    <path id="Path_6722" data-name="Path 6722" d="M18,12v5.132" transform="translate(9.849 5.91)" fill="none" stroke="#0081ff" stroke-linecap="round" stroke-linejoin="round" stroke-width="2"/>
    <path id="Path_6723" data-name="Path 6723" d="M12,18H27.4" transform="translate(5.585 9.849)" fill="none" stroke="#0081ff" stroke-linecap="round" stroke-linejoin="round" stroke-width="2"/>
    <path id="Path_6724" data-name="Path 6724" d="M18,21h5.132" transform="translate(9.849 11.981)" fill="none" stroke="#0081ff" stroke-linecap="round" stroke-linejoin="round" stroke-width="2"/>
    <path id="Path_6725" data-name="Path 6725" d="M6,12h5.132" transform="translate(1.97 5.991)" fill="none" stroke="#0081ff" stroke-linecap="round" stroke-linejoin="round" stroke-width="2"/>
    <path id="Path_6726" data-name="Path 6726" d="M6,6.019,6.017,6" transform="translate(2.132 2.132)" fill="none" stroke="#0081ff" stroke-linecap="round" stroke-linejoin="round" stroke-width="2"/>
    <path id="Path_6727" data-name="Path 6727" d="M12,12.019,12.017,12" transform="translate(5.991 5.991)" fill="none" stroke="#0081ff" stroke-linecap="round" stroke-linejoin="round" stroke-width="2"/>
    <path id="Path_6728" data-name="Path 6728" d="M3,12.019,3.017,12" transform="translate(0 5.991)" fill="none" stroke="#0081ff" stroke-linecap="round" stroke-linejoin="round" stroke-width="2"/>
    <path id="Path_6729" data-name="Path 6729" d="M12,9.019,12.017,9" transform="translate(5.991 3.994)" fill="none" stroke="#0081ff" stroke-linecap="round" stroke-linejoin="round" stroke-width="2"/>
    <path id="Path_6730" data-name="Path 6730" d="M12,15.019,12.017,15" transform="translate(5.991 7.987)" fill="none" stroke="#0081ff" stroke-linecap="round" stroke-linejoin="round" stroke-width="2"/>
    <path id="Path_6731" data-name="Path 6731" d="M15,21.019,15.017,21" transform="translate(7.987 11.981)" fill="none" stroke="#0081ff" stroke-linecap="round" stroke-linejoin="round" stroke-width="2"/>
    <path id="Path_6732" data-name="Path 6732" d="M12,21.019,12.017,21" transform="translate(5.991 11.981)" fill="none" stroke="#0081ff" stroke-linecap="round" stroke-linejoin="round" stroke-width="2"/>
    <path id="Path_6733" data-name="Path 6733" d="M21,12.019,21.017,12" transform="translate(11.981 5.991)" fill="none" stroke="#0081ff" stroke-linecap="round" stroke-linejoin="round" stroke-width="2"/>
    <path id="Path_6734" data-name="Path 6734" d="M21,15.019,21.017,15" transform="translate(11.981 7.987)" fill="none" stroke="#0081ff" stroke-linecap="round" stroke-linejoin="round" stroke-width="2"/>
    <path id="Path_6735" data-name="Path 6735" d="M18,6.019,18.017,6" transform="translate(9.849 2.132)" fill="none" stroke="#0081ff" stroke-linecap="round" stroke-linejoin="round" stroke-width="2"/>
    <path id="Path_6736" data-name="Path 6736" d="M13.264,4.026v8.211a1.026,1.026,0,0,1-1.026,1.026H4.026A1.026,1.026,0,0,1,3,12.238V4.026A1.026,1.026,0,0,1,4.026,3h8.211A1.026,1.026,0,0,1,13.264,4.026Z" fill="none" stroke="#0081ff" stroke-linecap="round" stroke-linejoin="round" stroke-width="2"/>
    <path id="Path_6737" data-name="Path 6737" d="M25.264,4.026v8.211a1.026,1.026,0,0,1-1.026,1.026H16.026A1.026,1.026,0,0,1,15,12.238V4.026A1.026,1.026,0,0,1,16.026,3h8.211A1.026,1.026,0,0,1,25.264,4.026Z" transform="translate(7.717)" fill="none" stroke="#0081ff" stroke-linecap="round" stroke-linejoin="round" stroke-width="2"/>
    <path id="Path_6738" data-name="Path 6738" d="M6,18.019,6.017,18" transform="translate(2.132 9.849)" fill="none" stroke="#0081ff" stroke-linecap="round" stroke-linejoin="round" stroke-width="2"/>
    <path id="Path_6739" data-name="Path 6739" d="M13.264,16.026v8.211a1.026,1.026,0,0,1-1.026,1.026H4.026A1.026,1.026,0,0,1,3,24.238V16.026A1.026,1.026,0,0,1,4.026,15h8.211A1.026,1.026,0,0,1,13.264,16.026Z" transform="translate(0 7.717)" fill="none" stroke="#0081ff" stroke-linecap="round" stroke-linejoin="round" stroke-width="2"/>
  </g>
</svg>
