<svg id="receipt" xmlns="http://www.w3.org/2000/svg" width="30.638" height="30" viewBox="0 0 30.638 30">
  <path id="Path_6766" data-name="Path 6766" d="M16,21.022h9.749V22.3H16Zm8.234,5.1h5.427v1.274H24.234Zm-.409-19.11H21.217a.637.637,0,1,1,0-1.274h2.608a.637.637,0,1,1,0,1.274Zm5.869,2.548H22.521a.637.637,0,1,1,0-1.274h7.173a.637.637,0,1,1,0,1.274ZM29.042,12.1H20.565a.637.637,0,1,1,0-1.274h8.477a.637.637,0,1,1,0,1.274Zm.652,2.548H20.565a.637.637,0,1,1,0-1.274h9.129a.637.637,0,1,1,0,1.274ZM28.39,17.2H20.565a.637.637,0,1,1,0-1.274H28.39a.637.637,0,1,1,0,1.274Zm.652,2.548H19.912a.637.637,0,1,1,0-1.274h9.129a.637.637,0,1,1,0,1.274ZM18.641,0H34.91V1.274H18.641Z" transform="translate(-6.228)" fill="#0081ff"/>
  <path id="Path_6767" data-name="Path 6767" d="M15.926,30H0V28.723a1.562,1.562,0,0,0,1.165-.384c.607-.611.6-2.032.588-3.285-.01-1.4-.019-2.724.723-3.471a1.832,1.832,0,0,1,1.354-.52H9.686c1.286-7,1.167-18.386,1.166-18.5C10.866,1.663,11.291,0,12.8,0V1.277c-.611,0-.67,1.274-.67,1.287.006.477.128,12.193-1.289,19.264l-.1.513H3.83a.572.572,0,0,0-.447.144c-.368.371-.36,1.535-.353,2.563a7.476,7.476,0,0,1-.565,3.677H15.926a1.562,1.562,0,0,0,1.165-.384c.607-.611.6-2.032.588-3.285-.01-1.4-.019-2.724.723-3.471a1.833,1.833,0,0,1,1.354-.52,2.029,2.029,0,0,1,1.5.534,3.123,3.123,0,0,1,.573,2.343,2.746,2.746,0,0,0,.354,1.843,1.97,1.97,0,0,0,1.4.386.761.761,0,0,0,.567-.3c2.586-2.655,2.771-17.723,2.624-23.3.015-.907.44-2.57,1.947-2.57,1.666,0,1.915,3.2,1.915,5.106v.638H28.093c.011,6.017-.314,18.236-3.026,21.021a2.037,2.037,0,0,1-1.482.681,3.091,3.091,0,0,1-2.307-.765,3.627,3.627,0,0,1-.723-2.754c.006-.6.013-1.213-.2-1.432a.9.9,0,0,0-.6-.156.572.572,0,0,0-.447.144c-.368.371-.36,1.535-.353,2.563.01,1.5.022,3.2-.959,4.193A2.8,2.8,0,0,1,15.926,30ZM28.086,4.468h1.262c-.066-1.561-.358-3.005-.674-3.2-.561.012-.62,1.286-.62,1.3C28.061,2.872,28.077,3.541,28.086,4.468Z" fill="#0081ff"/>
</svg>
