<svg xmlns="http://www.w3.org/2000/svg" width="29.188" height="30.6" viewBox="0 0 29.188 30.6">
  <g id="statement" transform="translate(-11.8 -0.5)">
    <path id="Path_6718" data-name="Path 6718" d="M38.275.8C16.88.806,18.8.794,18.649.806a2.4,2.4,0,0,0-2.373,2.4V8.861H12.41a.313.313,0,0,0-.31.31v12.25a2.389,2.389,0,0,0,2.332,2.4H20.46v6.649a.313.313,0,0,0,.545.211l1.716-1.91,1.728,1.927a.324.324,0,0,0,.234.105h0a.3.3,0,0,0,.234-.105l1.734-1.927,1.728,1.927a.324.324,0,0,0,.234.105h0a.3.3,0,0,0,.234-.105l1.734-1.927,1.728,1.927a.324.324,0,0,0,.234.105h0a.3.3,0,0,0,.234-.105l1.734-1.927,1.716,1.922a.324.324,0,0,0,.234.105h0a.3.3,0,0,0,.234-.105l1.734-1.933,1.711,1.91a.317.317,0,0,0,.346.082.311.311,0,0,0,.2-.293V3.208A2.42,2.42,0,0,0,38.275.8ZM12.721,21.421V9.482h3.55V21.415A1.778,1.778,0,0,1,14.5,23.19h-.059A1.764,1.764,0,0,1,12.721,21.421Zm3.392,1.769a2.434,2.434,0,0,0,.785-1.781V3.208a1.778,1.778,0,0,1,1.775-1.775,1.735,1.735,0,0,1,1.511.849,1.768,1.768,0,0,1,.264.926V23.19Zm23.943,6.456-1.4-1.558a.324.324,0,0,0-.234-.105h0a.3.3,0,0,0-.234.105l-1.734,1.927-1.728-1.927a.324.324,0,0,0-.234-.105h0a.3.3,0,0,0-.234.105l-1.734,1.927-1.728-1.927a.324.324,0,0,0-.234-.105h0a.3.3,0,0,0-.234.105l-1.734,1.927-1.728-1.927a.324.324,0,0,0-.234-.105h0a.3.3,0,0,0-.234.105L24.66,30.015l-1.728-1.927a.324.324,0,0,0-.234-.105h0a.3.3,0,0,0-.234.105l-1.406,1.564V3.2a2.384,2.384,0,0,0-.211-.984h0a2.409,2.409,0,0,0-.574-.791H38.257a1.784,1.784,0,0,1,1.781,1.781V29.646Z" transform="translate(0 0)" fill="#0081ff" stroke="#0081ff" stroke-width="0.6"/>
    <path id="Path_6719" data-name="Path 6719" d="M205.856,58.067H197.11a.283.283,0,1,1,0-.567h8.746a.283.283,0,0,1,0,.567ZM202.788,59.8H197.11a.283.283,0,1,1,0-.567h5.678a.285.285,0,0,1,.283.283A.282.282,0,0,1,202.788,59.8Zm3.069,13.1H197.11a.283.283,0,1,1,0-.567h8.746a.283.283,0,0,1,0,.567Zm0,3.459H197.11a.283.283,0,1,1,0-.567h8.746a.283.283,0,0,1,0,.567Zm-3.069-1.727H197.11a.283.283,0,1,1,0-.567h5.678a.285.285,0,0,1,.283.283A.278.278,0,0,1,202.788,74.635Zm7.682-12h-2.1a.283.283,0,0,1,0-.567h2.1a.285.285,0,0,1,.283.283A.282.282,0,0,1,210.47,62.632Zm-5.378,0h-8.009a.283.283,0,0,1,0-.567h8a.285.285,0,0,1,.283.283A.277.277,0,0,1,205.092,62.632Zm5.378,2.208h-2.1a.283.283,0,0,1,0-.567h2.1a.285.285,0,0,1,.283.283A.282.282,0,0,1,210.47,64.84Zm-5.378,0h-8.009a.283.283,0,0,1,0-.567h8a.285.285,0,0,1,.283.283A.277.277,0,0,1,205.092,64.84Zm5.378,2.208h-2.1a.283.283,0,0,1,0-.567h2.1a.285.285,0,0,1,.283.283A.282.282,0,0,1,210.47,67.048Zm-5.378,0h-8.009a.283.283,0,0,1,0-.567h8a.285.285,0,0,1,.283.283A.277.277,0,0,1,205.092,67.048Zm5.378,2.208h-2.1a.283.283,0,0,1,0-.567h2.1a.285.285,0,0,1,.283.283A.282.282,0,0,1,210.47,69.256Zm-5.378,0h-8.009a.283.283,0,0,1,0-.567h8a.285.285,0,0,1,.283.283A.281.281,0,0,1,205.092,69.256Z" transform="translate(-172.327 -53.669)" fill="#0081ff" stroke="#0081ff" stroke-width="0.6"/>
  </g>
</svg>
