<svg id="Txn-History" xmlns="http://www.w3.org/2000/svg" width="28.333" height="30" viewBox="0 0 28.333 30">
  <path id="Path_6652" data-name="Path 6652" d="M30.167,6h-20a3.85,3.85,0,0,0-.833.083h0A4.167,4.167,0,0,0,6,10.167a1.667,1.667,0,0,0,1.667,1.667h5V24.625a4.833,4.833,0,0,1,1.667-.292,5,5,0,1,1-1,9.9,2.5,2.5,0,0,0,.508.425c.775.508,1.142,1.342,2.433,1.342,1.808,0,1.808-1.667,3.608-1.667S21.692,36,23.492,36s1.808-1.667,3.617-1.667S28.908,36,30.717,36c1.3,0,1.667-.833,2.442-1.342a2.5,2.5,0,0,0,1.175-2.125V10.167A4.167,4.167,0,0,0,30.167,6Zm-22.5,4.167A2.5,2.5,0,0,1,9.517,7.75h.175a2.55,2.55,0,0,1,.475-.083,2.5,2.5,0,0,1,1.767.725,2.583,2.583,0,0,1,.683,1.275,4.834,4.834,0,0,1,.05.5Zm25,22.367a.833.833,0,0,1-.392.708,6.042,6.042,0,0,0-.875.7c-.417.375-.45.392-.683.392s-.267,0-.675-.392a4.025,4.025,0,0,0-5.833,0c-.408.375-.45.392-.675.392s-.258,0-.667-.392A4.092,4.092,0,0,0,20.1,32.666a6.667,6.667,0,0,0,.408-5.833h9.658a.833.833,0,1,0,0-1.667H19.717a1.183,1.183,0,0,0-.167,0,6.667,6.667,0,0,0-2-1.667H30.167a.833.833,0,0,0,0-1.667H16.833a.833.833,0,0,0-.833.833.733.733,0,0,0,.05.233,6.517,6.517,0,0,0-1.717-.233v-12.5a5.833,5.833,0,0,0-.558-2.5H30.167a2.5,2.5,0,0,1,2.5,2.5Z" transform="translate(-6 -6)" fill="#0081ff"/>
  <path id="Path_6653" data-name="Path 6653" d="M34.078,12H28.868a.868.868,0,0,0,0,1.736h5.209a.868.868,0,0,0,0-1.736Z" transform="translate(-10.086 -7.012)" fill="#0081ff"/>
  <path id="Path_6654" data-name="Path 6654" d="M34.078,16H28.868a.868.868,0,0,0,0,1.736h5.209a.868.868,0,0,0,0-1.736Z" transform="translate(-10.086 -7.687)" fill="#0081ff"/>
  <path id="Path_6655" data-name="Path 6655" d="M34.078,20H28.868a.868.868,0,0,0,0,1.736h5.209a.868.868,0,1,0,0-1.736Z" transform="translate(-10.086 -8.362)" fill="#0081ff"/>
  <path id="Path_6656" data-name="Path 6656" d="M23.209,12H19.736A1.736,1.736,0,0,0,18,13.736v5.209a1.736,1.736,0,0,0,1.736,1.736h3.473a1.736,1.736,0,0,0,1.736-1.736V13.736A1.736,1.736,0,0,0,23.209,12Zm0,6.946H19.736V13.736h3.473Z" transform="translate(-8.129 -7.08)" fill="#0081ff"/>
  <ellipse id="Ellipse_664" data-name="Ellipse 664" cx="7" cy="6.5" rx="7" ry="6.5" transform="translate(1.76 16.215)" fill="#f9cc12"/>
  <path id="Path_6657" data-name="Path 6657" d="M16.7,35.212a1.789,1.789,0,0,1-2.457,0,.564.564,0,0,0-.13-.087l.278-.287c.356-.356.252-.868-.148-.868h-.087l-1.346.2a.764.764,0,0,0-.6.6L12,36.149a.365.365,0,0,0,.365.451.686.686,0,0,0,.469-.217l.078-.078c0,.043.052.1.087.13a3.473,3.473,0,0,0,4.914,0,.868.868,0,0,0-1.224-1.224Z" transform="translate(-7.053 -10.942)" fill="#fff"/>
  <path id="Path_6658" data-name="Path 6658" d="M18.687,30.866a.686.686,0,0,0-.469.217l-.078.078a.617.617,0,0,0-.1-.156,3.473,3.473,0,0,0-4.914,0,.869.869,0,1,0,1.233,1.224,1.789,1.789,0,0,1,2.457,0,.98.98,0,0,0,.156.1l-.3.3c-.356.356-.252.868.148.868h.087l1.346-.2a.764.764,0,0,0,.6-.6l.208-1.38a.365.365,0,0,0-.373-.451Z" transform="translate(-7.209 -10.104)" fill="#fff"/>
</svg>
