<svg xmlns="http://www.w3.org/2000/svg" width="26" height="14.637" viewBox="0 0 26 14.637">
  <g id="view" transform="translate(-1.01 -6.25)">
    <path id="Path_6774" data-name="Path 6774" d="M26.906,13.048c-2.813-4.7-6.79-6.8-12.9-6.8s-10.082,2.1-12.9,6.8a.8.8,0,0,0-.1.521.8.8,0,0,0,.1.521c2.813,4.7,6.79,6.8,12.9,6.8s10.082-2.1,12.9-6.8a.8.8,0,0,0,.1-.521A.8.8,0,0,0,26.906,13.048Zm-12.9,5.4a4.879,4.879,0,1,1,4.879-4.879A4.884,4.884,0,0,1,14.01,18.448ZM2.7,13.569A10.908,10.908,0,0,1,10.315,8.22a6.493,6.493,0,0,0,0,10.7A10.908,10.908,0,0,1,2.7,13.569Zm15,5.348a6.493,6.493,0,0,0,0-10.7,10.907,10.907,0,0,1,7.611,5.348A10.907,10.907,0,0,1,17.7,18.917Z" transform="translate(0 0)" fill="#1b3890"/>
    <path id="Path_6775" data-name="Path 6775" d="M15.536,12.3l-.122.015a1.543,1.543,0,0,1-1.534-1.454A.815.815,0,0,0,13.6,10.3a.865.865,0,0,0-.6-.2,3.157,3.157,0,1,0,3.4,3.143,1.2,1.2,0,0,0-.016-.19A.834.834,0,0,0,15.536,12.3Z" transform="translate(0.764 0.324)" fill="#f9cc12"/>
  </g>
</svg>
