<svg xmlns="http://www.w3.org/2000/svg" width="45.689" height="30" viewBox="0 0 45.689 30">
  <g id="Virtual_Cards" data-name="Virtual Cards" transform="translate(0 0)">
    <path id="Path_6747" data-name="Path 6747" d="M350.477,357.309V341.775a2.7,2.7,0,0,1,2.7-2.7H376.99V336.9a1.8,1.8,0,0,0-1.8-1.8H346.3a1.8,1.8,0,0,0-1.8,1.8v18.609a1.8,1.8,0,0,0,1.8,1.8Z" transform="translate(-343.835 -334.428)" fill="#f7f8f8"/>
    <path id="Path_6748" data-name="Path 6748" d="M217.4,417.8a2.906,2.906,0,0,0,.363.141A1.694,1.694,0,0,1,217.4,417.8Zm4.7.269a2.686,2.686,0,0,1-2.686-2.686V397a2.7,2.7,0,0,1,2.7-2.7h26.124a2.685,2.685,0,0,1,2.686,2.686v18.4a2.686,2.686,0,0,1-2.686,2.686h-29.67a2.648,2.648,0,0,1-.8-.121,2.648,2.648,0,0,0,.8.121Z" transform="translate(-207.841 -388.738)" fill="#f9cc12"/>
    <path id="Path_6749" data-name="Path 6749" d="M701.1,335.1h3.532a1.83,1.83,0,0,0-1.8,1.859v19.225a1.83,1.83,0,0,0,1.8,1.859H701.1a1.83,1.83,0,0,1-1.8-1.859V336.959A1.83,1.83,0,0,1,701.1,335.1ZM707.164,363.643Zm.8-24.435a2.731,2.731,0,0,0-2.686,2.775v19.01a2.793,2.793,0,0,0,1.524,2.5,2.793,2.793,0,0,1-1.524-2.5v-19.01A2.735,2.735,0,0,1,707.963,339.207Z" transform="translate(-698.635 -334.428)" fill="#2ea7e0"/>
    <path id="Path_6750" data-name="Path 6750" d="M646.4,415.387v-18.4a2.685,2.685,0,0,1,2.686-2.686h3.553a2.7,2.7,0,0,0-2.7,2.7v18.387a2.686,2.686,0,0,0,2.686,2.686h-3.532a2.649,2.649,0,0,1-.8-.121h-.007q-.181-.06-.363-.141A2.7,2.7,0,0,1,646.4,415.387Z" transform="translate(-639.758 -388.738)" fill="#2ea7e0"/>
    <path id="Path_6751" data-name="Path 6751" d="M482.481,624.543h-9.227a.672.672,0,1,1,0-1.343h9.227a.672.672,0,1,1,0,1.343Zm0,3.083h-12.31a.672.672,0,0,1,0-1.343h12.31a.672.672,0,1,1,0,1.343Z" transform="translate(-457.888 -602.438)" fill="#036eb8"/>
    <path id="Path_6752" data-name="Path 6752" d="M181.142,325.1h4.308a.693.693,0,0,1,0,1.385h-4.308a1.162,1.162,0,0,0-1.164,1.164v19.194a1.162,1.162,0,0,0,1.164,1.164h3.616V332.664a3.465,3.465,0,0,1,3.463-3.463h26v-1.552a1.162,1.162,0,0,0-1.164-1.164H189a.693.693,0,0,1,0-1.385h24.057a2.551,2.551,0,0,1,2.549,2.549V329.2h5.216a3.465,3.465,0,0,1,3.463,3.463V343.22a.693.693,0,0,1-1.385,0V340.1H204.326a.693.693,0,0,1,0-1.385H222.9v-6.054a2.084,2.084,0,0,0-2.078-2.078H188.235a2.094,2.094,0,0,0-2.092,2.092v6.04h15.828a.693.693,0,1,1,0,1.385H186.143v11.54a2.084,2.084,0,0,0,2.078,2.078h32.6a2.084,2.084,0,0,0,2.078-2.078V345.6a.693.693,0,1,1,1.385,0v6.033a3.465,3.465,0,0,1-3.463,3.463h-32.6a3.465,3.465,0,0,1-3.463-3.463v-2.251h-3.616a2.551,2.551,0,0,1-2.549-2.549V327.649A2.541,2.541,0,0,1,181.142,325.1Z" transform="translate(-178.6 -325.1)" fill="#036eb8"/>
    <path id="Path_6753" data-name="Path 6753" d="M275.774,628.074m1.075,0A1.074,1.074,0,1,1,275.774,627,1.075,1.075,0,0,1,276.849,628.074Z" transform="translate(-237.614 -606.037)" fill="#3e3a39"/>
    <path id="Path_6754" data-name="Path 6754" d="M243.775,654.775m1.074,0a1.074,1.074,0,1,1-1.074-1.074A1.074,1.074,0,0,1,244.849,654.775Z" transform="translate(-203.465 -630.883)" fill="#ef6676"/>
    <path id="Path_6755" data-name="Path 6755" d="M415.374,654.775m1.075,0a1.075,1.075,0,1,1-1.075-1.074A1.075,1.075,0,0,1,416.449,654.775Z" transform="translate(-387.112 -630.883)" fill="#ef6676"/>
    <path id="Path_6756" data-name="Path 6756" d="M383.374,628.074m1.075,0A1.074,1.074,0,1,1,383.374,627,1.075,1.075,0,0,1,384.449,628.074Z" transform="translate(-352.892 -606.037)" fill="#3e3a39"/>
    <path id="Path_6757" data-name="Path 6757" d="M313.632,653.7h3.4a.406.406,0,0,1,.389.5,2.149,2.149,0,0,1-3.351,1.236,2.136,2.136,0,0,1-.826-1.236A.406.406,0,0,1,313.632,653.7Z" transform="translate(-281.097 -630.883)" fill="#3e3a39"/>
    <path id="Path_6758" data-name="Path 6758" d="M327.748,669.7a1.534,1.534,0,0,1,1.175.551.137.137,0,0,1-.034.2,2.145,2.145,0,0,1-2.283,0,.136.136,0,0,1-.034-.2A1.534,1.534,0,0,1,327.748,669.7Z" transform="translate(-293.531 -645.802)" fill="#e4847f"/>
  </g>
</svg>
