<svg xmlns="http://www.w3.org/2000/svg" width="29.714" height="30" viewBox="0 0 29.714 30">
  <g id="wallet" transform="translate(-182 -155.654)">
    <path id="Path_6759" data-name="Path 6759" d="M328.668,450.387h-14.4a1.7,1.7,0,0,1-1.668-1.72V438.62a1.7,1.7,0,0,1,1.668-1.72h14.4a1.7,1.7,0,0,1,1.668,1.72v10.052A1.691,1.691,0,0,1,328.668,450.387Z" transform="translate(-124.611 -268.906)" fill="#f9cc12"/>
    <path id="Path_6760" data-name="Path 6760" d="M207.527,163.3h-.7l-1.2-5.65a2.5,2.5,0,0,0-2.908-1.949l-15.028,2.751a2.508,2.508,0,0,0-2.017,2.926l.356,1.927A4.192,4.192,0,0,0,182,167.483v13.984a4.191,4.191,0,0,0,4.187,4.187h21.34a4.191,4.191,0,0,0,4.187-4.187V167.478A4.19,4.19,0,0,0,207.527,163.3Zm-20.071-2.854a.831.831,0,0,1,.536-.347l15.028-2.751a.831.831,0,0,1,.968.648l1.121,5.3H187.731l-.41-2.224A.825.825,0,0,1,187.457,160.441Zm20.071,23.533h-21.34a2.513,2.513,0,0,1-2.512-2.512V167.478a2.513,2.513,0,0,1,2.512-2.512h21.34a2.513,2.513,0,0,1,2.512,2.512v2.494h-6.064a4.5,4.5,0,0,0,0,9h6.064v2.494A2.513,2.513,0,0,1,207.527,183.974Zm2.512-6.681h-6.064a2.823,2.823,0,0,1,0-5.646h6.064Z" transform="translate(0)" fill="#0081ff"/>
    <path id="Path_6761" data-name="Path 6761" d="M652.51,550.51m-1.11,0a1.11,1.11,0,1,0,1.11-1.11A1.11,1.11,0,0,0,651.4,550.51Z" transform="translate(-448.298 -376.045)" fill="#0081ff"/>
  </g>
</svg>
